<svg xmlns="http://www.w3.org/2000/svg" xmlns:xlink="http://www.w3.org/1999/xlink" width="500" zoomAndPan="magnify" viewBox="0 0 375 374.999991" height="500" preserveAspectRatio="xMidYMid meet" version="1.0"><defs><clipPath id="c0fb36261b"><path d="M 18.75 129 L 356.25 129 L 356.25 350.484375 L 18.75 350.484375 Z M 18.75 129 " clip-rule="nonzero"/></clipPath><clipPath id="9c6c89c2ee"><path d="M 132 24.234375 L 243 24.234375 L 243 135 L 132 135 Z M 132 24.234375 " clip-rule="nonzero"/></clipPath></defs><g clip-path="url(#c0fb36261b)"><path fill="#109ea4" d="M 71.523438 129.21875 L 97.90625 129.21875 C 111.765625 154.277344 135.871094 173.070312 165.101562 179.523438 L 165.101562 181.605469 C 151.058594 189.199219 142.894531 203.4375 142.894531 220.332031 C 142.894531 244.058594 163.585938 264.941406 187.507812 264.941406 C 211.429688 264.941406 232.117188 244.066406 232.117188 220.332031 C 232.117188 203.4375 223.769531 189.199219 209.910156 181.605469 L 209.910156 179.523438 C 238.957031 173.070312 263.25 154.277344 277.105469 129.21875 L 303.492188 129.21875 C 332.539062 129.21875 356.261719 152.945312 356.261719 181.992188 C 356.261719 211.039062 332.539062 234.761719 303.492188 234.761719 L 240.285156 234.761719 L 240.285156 297.96875 C 240.285156 327.015625 216.558594 350.742188 187.511719 350.742188 C 158.46875 350.742188 134.742188 327.015625 134.742188 297.96875 L 134.742188 234.761719 L 71.523438 234.761719 C 42.476562 234.761719 18.75 211.039062 18.75 181.992188 C 18.75 152.945312 42.476562 129.21875 71.523438 129.21875 Z M 71.523438 129.21875 " fill-opacity="1" fill-rule="evenodd"/></g><g clip-path="url(#9c6c89c2ee)"><path fill="#109ea4" d="M 187.5 24.25 C 218.0625 24.25 242.734375 48.929688 242.734375 79.488281 C 242.734375 110.042969 218.058594 134.722656 187.5 134.722656 C 156.941406 134.722656 132.265625 110.042969 132.265625 79.488281 C 132.265625 48.929688 156.9375 24.25 187.5 24.25 Z M 187.5 24.25 " fill-opacity="1" fill-rule="evenodd"/></g><path fill="#545454" d="M 276.714844 79.488281 C 276.714844 125.617188 241.601562 163.765625 196.613281 168.324219 L 196.613281 190.339844 C 209.519531 194.136719 218.820312 204.578125 218.820312 220.332031 C 218.820312 235.898438 204.773438 251.652344 187.5 251.652344 C 170.226562 251.652344 156.179688 235.898438 156.179688 220.332031 C 156.179688 204.578125 165.480469 194.136719 178.386719 190.339844 L 178.386719 168.324219 C 133.398438 163.765625 98.285156 125.617188 98.285156 79.488281 L 122.011719 79.488281 C 122.011719 84.042969 122.578125 88.597656 123.53125 92.777344 L 117.078125 92.777344 C 123.339844 125.992188 152.386719 151.238281 187.5 151.238281 C 222.425781 151.238281 251.660156 125.992188 257.921875 92.777344 L 251.46875 92.777344 C 252.421875 88.597656 252.800781 84.042969 252.800781 79.488281 Z M 189.019531 205.90625 L 185.980469 205.90625 C 178.765625 206.664062 173.074219 212.550781 173.074219 220.332031 C 173.074219 228.113281 179.527344 234.757812 187.5 234.757812 C 195.472656 234.757812 201.925781 228.113281 201.925781 220.332031 C 201.925781 212.550781 196.234375 206.671875 189.019531 205.90625 Z M 189.019531 205.90625 " fill-opacity="1" fill-rule="evenodd"/></svg>