<svg xmlns="http://www.w3.org/2000/svg" xmlns:xlink="http://www.w3.org/1999/xlink" width="500" zoomAndPan="magnify" viewBox="0 0 375 374.999991" height="500" preserveAspectRatio="xMidYMid meet" version="1.0"><defs><g/><clipPath id="1209cf0de0"><path d="M 85.734375 100 L 288.984375 100 L 288.984375 234.75 L 85.734375 234.75 Z M 85.734375 100 " clip-rule="nonzero"/></clipPath><clipPath id="d81c192eaa"><path d="M 154 37.5 L 221 37.5 L 221 105 L 154 105 Z M 154 37.5 " clip-rule="nonzero"/></clipPath></defs><g fill="#545454" fill-opacity="1"><g transform="translate(-1.667696, 306.904905)"><g><path d="M 36.828125 0 L 28.59375 0 L 28.59375 -16.8125 L 13.171875 -16.8125 L 13.171875 0 L 4.90625 0 L 4.90625 -38.96875 L 13.171875 -38.96875 L 13.171875 -23.6875 L 28.59375 -23.6875 L 28.59375 -38.96875 L 36.828125 -38.96875 Z M 36.828125 0 "/></g></g></g><g fill="#545454" fill-opacity="1"><g transform="translate(41.180567, 306.904905)"><g><path d="M 27.34375 0 L 4.90625 0 L 4.90625 -38.96875 L 27.34375 -38.96875 L 27.34375 -32.1875 L 13.171875 -32.1875 L 13.171875 -23.640625 L 26.359375 -23.640625 L 26.359375 -16.875 L 13.171875 -16.875 L 13.171875 -6.828125 L 27.34375 -6.828125 Z M 27.34375 0 "/></g></g></g><g fill="#545454" fill-opacity="1"><g transform="translate(72.836959, 306.904905)"><g><path d="M 28.75 0 L 25.9375 -9.28125 L 11.71875 -9.28125 L 8.90625 0 L 0 0 L 13.75 -39.125 L 23.84375 -39.125 L 37.65625 0 Z M 23.953125 -16.203125 L 21.140625 -25.265625 C 20.953125 -25.867188 20.710938 -26.644531 20.421875 -27.59375 C 20.128906 -28.539062 19.835938 -29.507812 19.546875 -30.5 C 19.253906 -31.488281 19.019531 -32.347656 18.84375 -33.078125 C 18.664062 -32.347656 18.421875 -31.441406 18.109375 -30.359375 C 17.796875 -29.285156 17.5 -28.269531 17.21875 -27.3125 C 16.9375 -26.351562 16.734375 -25.671875 16.609375 -25.265625 L 13.796875 -16.203125 Z M 23.953125 -16.203125 "/></g></g></g><g fill="#545454" fill-opacity="1"><g transform="translate(111.581535, 306.904905)"><g><path d="M 4.90625 0 L 4.90625 -38.96875 L 13.171875 -38.96875 L 13.171875 -6.828125 L 28.96875 -6.828125 L 28.96875 0 Z M 4.90625 0 "/></g></g></g><g fill="#545454" fill-opacity="1"><g transform="translate(143.504399, 306.904905)"><g><path d="M 19.9375 0 L 11.671875 0 L 11.671875 -32.09375 L 1.09375 -32.09375 L 1.09375 -38.96875 L 30.515625 -38.96875 L 30.515625 -32.09375 L 19.9375 -32.09375 Z M 19.9375 0 "/></g></g></g><g fill="#545454" fill-opacity="1"><g transform="translate(176.200022, 306.904905)"><g><path d="M 36.828125 0 L 28.59375 0 L 28.59375 -16.8125 L 13.171875 -16.8125 L 13.171875 0 L 4.90625 0 L 4.90625 -38.96875 L 13.171875 -38.96875 L 13.171875 -23.6875 L 28.59375 -23.6875 L 28.59375 -38.96875 L 36.828125 -38.96875 Z M 36.828125 0 "/></g></g></g><g fill="#545454" fill-opacity="1"><g transform="translate(219.048284, 306.904905)"><g/></g></g><g fill="#545454" fill-opacity="1"><g transform="translate(234.316567, 306.904905)"><g><path d="M 21.453125 -32.640625 C 19.867188 -32.640625 18.46875 -32.332031 17.25 -31.71875 C 16.039062 -31.113281 15.019531 -30.234375 14.1875 -29.078125 C 13.363281 -27.921875 12.738281 -26.523438 12.3125 -24.890625 C 11.882812 -23.253906 11.671875 -21.414062 11.671875 -19.375 C 11.671875 -16.625 12.007812 -14.273438 12.6875 -12.328125 C 13.375 -10.378906 14.4375 -8.894531 15.875 -7.875 C 17.320312 -6.851562 19.179688 -6.34375 21.453125 -6.34375 C 23.035156 -6.34375 24.617188 -6.519531 26.203125 -6.875 C 27.796875 -7.226562 29.523438 -7.734375 31.390625 -8.390625 L 31.390625 -1.46875 C 29.671875 -0.757812 27.972656 -0.25 26.296875 0.0625 C 24.628906 0.375 22.757812 0.53125 20.6875 0.53125 C 16.664062 0.53125 13.363281 -0.296875 10.78125 -1.953125 C 8.195312 -3.617188 6.28125 -5.945312 5.03125 -8.9375 C 3.789062 -11.9375 3.171875 -15.429688 3.171875 -19.421875 C 3.171875 -22.367188 3.566406 -25.066406 4.359375 -27.515625 C 5.160156 -29.972656 6.332031 -32.097656 7.875 -33.890625 C 9.425781 -35.691406 11.335938 -37.078125 13.609375 -38.046875 C 15.890625 -39.023438 18.503906 -39.515625 21.453125 -39.515625 C 23.390625 -39.515625 25.328125 -39.269531 27.265625 -38.78125 C 29.210938 -38.300781 31.078125 -37.632812 32.859375 -36.78125 L 30.1875 -30.0625 C 28.738281 -30.75 27.273438 -31.347656 25.796875 -31.859375 C 24.316406 -32.378906 22.867188 -32.640625 21.453125 -32.640625 Z M 21.453125 -32.640625 "/></g></g></g><g fill="#545454" fill-opacity="1"><g transform="translate(270.183234, 306.904905)"><g><path d="M 28.75 0 L 25.9375 -9.28125 L 11.71875 -9.28125 L 8.90625 0 L 0 0 L 13.75 -39.125 L 23.84375 -39.125 L 37.65625 0 Z M 23.953125 -16.203125 L 21.140625 -25.265625 C 20.953125 -25.867188 20.710938 -26.644531 20.421875 -27.59375 C 20.128906 -28.539062 19.835938 -29.507812 19.546875 -30.5 C 19.253906 -31.488281 19.019531 -32.347656 18.84375 -33.078125 C 18.664062 -32.347656 18.421875 -31.441406 18.109375 -30.359375 C 17.796875 -29.285156 17.5 -28.269531 17.21875 -27.3125 C 16.9375 -26.351562 16.734375 -25.671875 16.609375 -25.265625 L 13.796875 -16.203125 Z M 23.953125 -16.203125 "/></g></g></g><g fill="#545454" fill-opacity="1"><g transform="translate(308.92781, 306.904905)"><g><path d="M 16.25 -38.96875 C 19.789062 -38.96875 22.710938 -38.539062 25.015625 -37.6875 C 27.316406 -36.832031 29.023438 -35.539062 30.140625 -33.8125 C 31.253906 -32.09375 31.8125 -29.921875 31.8125 -27.296875 C 31.8125 -25.515625 31.472656 -23.957031 30.796875 -22.625 C 30.128906 -21.289062 29.242188 -20.160156 28.140625 -19.234375 C 27.035156 -18.316406 25.847656 -17.5625 24.578125 -16.96875 L 36.03125 0 L 26.859375 0 L 17.5625 -14.953125 L 13.171875 -14.953125 L 13.171875 0 L 4.90625 0 L 4.90625 -38.96875 Z M 15.671875 -32.1875 L 13.171875 -32.1875 L 13.171875 -21.671875 L 15.828125 -21.671875 C 18.566406 -21.671875 20.523438 -22.125 21.703125 -23.03125 C 22.890625 -23.945312 23.484375 -25.296875 23.484375 -27.078125 C 23.484375 -28.921875 22.847656 -30.234375 21.578125 -31.015625 C 20.304688 -31.796875 18.335938 -32.1875 15.671875 -32.1875 Z M 15.671875 -32.1875 "/></g></g></g><g fill="#545454" fill-opacity="1"><g transform="translate(346.046887, 306.904905)"><g><path d="M 27.34375 0 L 4.90625 0 L 4.90625 -38.96875 L 27.34375 -38.96875 L 27.34375 -32.1875 L 13.171875 -32.1875 L 13.171875 -23.640625 L 26.359375 -23.640625 L 26.359375 -16.875 L 13.171875 -16.875 L 13.171875 -6.828125 L 27.34375 -6.828125 Z M 27.34375 0 "/></g></g></g><g clip-path="url(#1209cf0de0)"><path fill="#109ea4" d="M 117.558594 100.8125 L 133.46875 100.8125 C 141.824219 115.921875 156.363281 127.253906 173.988281 131.144531 L 173.988281 132.402344 C 165.519531 136.980469 160.597656 145.566406 160.597656 155.753906 C 160.597656 170.0625 173.074219 182.65625 187.5 182.65625 C 201.925781 182.65625 214.402344 170.066406 214.402344 155.753906 C 214.402344 145.566406 209.367188 136.980469 201.007812 132.402344 L 201.007812 131.144531 C 218.523438 127.253906 233.171875 115.921875 241.53125 100.8125 L 257.441406 100.8125 C 274.957031 100.8125 289.265625 115.117188 289.265625 132.632812 C 289.265625 150.148438 274.957031 164.457031 257.441406 164.457031 L 219.328125 164.457031 L 219.328125 202.570312 C 219.328125 220.085938 205.019531 234.394531 187.503906 234.394531 C 169.988281 234.394531 155.679688 220.085938 155.679688 202.570312 L 155.679688 164.457031 L 117.558594 164.457031 C 100.042969 164.457031 85.734375 150.148438 85.734375 132.632812 C 85.734375 115.117188 100.042969 100.8125 117.558594 100.8125 Z M 117.558594 100.8125 " fill-opacity="1" fill-rule="evenodd"/></g><g clip-path="url(#d81c192eaa)"><path fill="#109ea4" d="M 187.496094 37.511719 C 205.925781 37.511719 220.804688 52.394531 220.804688 70.820312 C 220.804688 89.246094 205.921875 104.128906 187.496094 104.128906 C 169.070312 104.128906 154.1875 89.246094 154.1875 70.820312 C 154.1875 52.394531 169.066406 37.511719 187.496094 37.511719 Z M 187.496094 37.511719 " fill-opacity="1" fill-rule="evenodd"/></g><path fill="#545454" d="M 241.292969 70.820312 C 241.292969 98.636719 220.121094 121.644531 192.992188 124.390625 L 192.992188 137.667969 C 200.773438 139.957031 206.382812 146.253906 206.382812 155.753906 C 206.382812 165.140625 197.910156 174.640625 187.496094 174.640625 C 177.078125 174.640625 168.609375 165.140625 168.609375 155.753906 C 168.609375 146.253906 174.21875 139.957031 182 137.667969 L 182 124.390625 C 154.871094 121.644531 133.699219 98.636719 133.699219 70.820312 L 148.003906 70.820312 C 148.003906 73.566406 148.347656 76.316406 148.921875 78.835938 L 145.03125 78.835938 C 148.808594 98.867188 166.320312 114.089844 187.496094 114.089844 C 208.554688 114.089844 226.183594 98.867188 229.960938 78.835938 L 226.070312 78.835938 C 226.644531 76.316406 226.871094 73.566406 226.871094 70.820312 Z M 188.410156 147.054688 L 186.578125 147.054688 C 182.230469 147.511719 178.796875 151.058594 178.796875 155.753906 C 178.796875 160.445312 182.6875 164.453125 187.496094 164.453125 C 192.304688 164.453125 196.195312 160.445312 196.195312 155.753906 C 196.195312 151.058594 192.761719 147.515625 188.410156 147.054688 Z M 188.410156 147.054688 " fill-opacity="1" fill-rule="evenodd"/></svg>